<svg xmlns="http://www.w3.org/2000/svg" viewBox="0 0 30 21" width="30" height="21">
	<style>
		tspan { white-space:pre }
		.shp0 { opacity: 0.6;fill: #000000 } 
	</style>
	<g id="Menue">
		<path id="Rounded Rectangle 4 copy 2" class="shp0" d="M1.5 17L28.5 17C29.33 17 30 17.67 30 18.5L30 19.5C30 20.33 29.33 21 28.5 21L1.5 21C0.67 21 0 20.33 0 19.5L0 18.5C0 17.67 0.67 17 1.5 17Z" />
		<path id="Rounded Rectangle 4 copy 3" class="shp0" d="M1.5 9L28.5 9C29.33 9 30 9.67 30 10.5L30 11.5C30 12.33 29.33 13 28.5 13L1.5 13C0.67 13 0 12.33 0 11.5L0 10.5C0 9.67 0.67 9 1.5 9Z" />
		<path id="Rounded Rectangle 4 copy 4" class="shp0" d="M1.5 0L28.5 0C29.33 0 30 0.67 30 1.5L30 2.5C30 3.33 29.33 4 28.5 4L1.5 4C0.67 4 0 3.33 0 2.5L0 1.5C0 0.67 0.67 0 1.5 0Z" />
	</g>
</svg>